<svg width="20" height="11" viewBox="0 0 20 11" fill="none" xmlns="http://www.w3.org/2000/svg">
<path d="M17.6249 0.95956C18.0154 0.569036 18.6486 0.569036 19.0391 0.95956C19.4297 1.35008 19.4297 1.98325 19.0391 2.37377L17.6249 0.95956ZM10.7058 9.29289L9.9987 8.58579L9.9987 8.58579L10.7058 9.29289ZM9.29159 9.29289L9.9987 8.58579L9.9987 8.58579L9.29159 9.29289ZM0.958257 2.37377C0.567733 1.98325 0.567733 1.35009 0.958257 0.959561C1.34878 0.569036 1.98195 0.569036 2.37247 0.959561L0.958257 2.37377ZM19.0391 2.37377L11.4129 10L9.9987 8.58579L17.6249 0.95956L19.0391 2.37377ZM8.58449 10L0.958257 2.37377L2.37247 0.959561L9.9987 8.58579L8.58449 10ZM11.4129 10C10.6319 10.7811 9.36553 10.781 8.58448 10L9.9987 8.58579L9.9987 8.58579L11.4129 10Z" fill="#0BCDED"/>
</svg>
