<svg width="19" height="18" viewBox="0 0 19 18" fill="none" xmlns="http://www.w3.org/2000/svg">
<path d="M18.0771 0.626038C18.1657 0.712837 18.2363 0.816187 18.2846 0.93031C18.3329 1.04455 18.3579 1.1672 18.3579 1.29118C18.3579 1.41516 18.3329 1.53781 18.2846 1.65206C18.2363 1.76619 18.1657 1.86954 18.077 1.95635L18.0771 0.626038ZM18.0771 0.626038C17.9886 0.539067 17.8837 0.470312 17.7686 0.423475C17.6535 0.376606 17.5302 0.352539 17.4058 0.352539C17.2814 0.352539 17.1581 0.376606 17.0429 0.423475C16.9278 0.470308 16.823 0.539053 16.7345 0.626012C16.7344 0.626086 16.7343 0.62616 16.7343 0.626233L1.31564 15.7491C1.13663 15.9247 1.03516 16.1638 1.03516 16.4143C1.03516 16.6647 1.13663 16.9039 1.31564 17.0794C1.49448 17.2548 1.73603 17.3525 1.9869 17.3525C2.23777 17.3525 2.47932 17.2548 2.65816 17.0794L18.0768 1.95657V0.625792C18.0769 0.625874 18.077 0.625956 18.0771 0.626038Z" fill="#F8F8F8" stroke="white" stroke-width="0.5"/>
<path d="M1.316 0.626012C1.22734 0.712816 1.15672 0.816175 1.10843 0.930309C1.0601 1.04455 1.03516 1.1672 1.03516 1.29118C1.03516 1.41516 1.0601 1.53781 1.10843 1.65205C1.15674 1.76624 1.22741 1.86965 1.31613 1.95648C1.31616 1.95651 1.3162 1.95654 1.31623 1.95657L16.7349 17.0794C16.9137 17.2548 17.1553 17.3525 17.4061 17.3525C17.657 17.3525 17.8986 17.2548 18.0774 17.0794C18.2564 16.9039 18.3579 16.6647 18.3579 16.4143C18.3579 16.1638 18.2564 15.9247 18.0774 15.7491L2.65876 0.626233C2.65871 0.626191 2.65867 0.626148 2.65863 0.626105L2.65853 0.626012L2.48347 0.804492L1.316 0.626012Z" fill="#F8F8F8" stroke="white" stroke-width="0.5"/>
</svg>
