<svg width="21" height="23" viewBox="0 0 21 23" fill="none" xmlns="http://www.w3.org/2000/svg">
<path d="M18.1987 13.8942V19.1025C18.1987 19.6755 17.7017 20.1442 17.0942 20.1442H3.83993C3.23245 20.1442 2.73541 19.6755 2.73541 19.1025V13.8942C2.73541 13.3213 2.23838 12.8525 1.63089 12.8525C1.0234 12.8525 0.526367 13.3213 0.526367 13.8942V20.1442C0.526367 21.29 1.52044 22.2275 2.73541 22.2275H18.1987C19.4137 22.2275 20.4078 21.29 20.4078 20.1442V13.8942C20.4078 13.3213 19.9107 12.8525 19.3032 12.8525C18.6958 12.8525 18.1987 13.3213 18.1987 13.8942ZM11.5716 13.5505L13.6481 11.5921C13.7503 11.4957 13.8717 11.4192 14.0054 11.367C14.139 11.3148 14.2822 11.2879 14.4268 11.2879C14.5714 11.2879 14.7146 11.3148 14.8482 11.367C14.9818 11.4192 15.1032 11.4957 15.2055 11.5921C15.3077 11.6886 15.3888 11.8031 15.4442 11.9291C15.4995 12.0551 15.528 12.1901 15.528 12.3265C15.528 12.4629 15.4995 12.5979 15.4442 12.7239C15.3888 12.8499 15.3077 12.9644 15.2055 13.0609L11.2402 16.8005C11.138 16.897 11.0167 16.9736 10.8831 17.0259C10.7494 17.0782 10.6062 17.1051 10.4615 17.1051C10.3169 17.1051 10.1736 17.0782 10.04 17.0259C9.90641 16.9736 9.78504 16.897 9.68285 16.8005L5.71762 13.0609C5.5111 12.8661 5.39508 12.6019 5.39508 12.3265C5.39508 12.0511 5.5111 11.7869 5.71762 11.5921C5.92414 11.3974 6.20424 11.2879 6.49631 11.2879C6.78837 11.2879 7.06847 11.3974 7.27499 11.5921L9.36254 13.5505V1.21842C9.36254 0.645508 9.85958 0.176758 10.4671 0.176758C11.0745 0.176758 11.5716 0.645508 11.5716 1.21842V13.5505Z" fill="white"/>
</svg>
