<svg width="19" height="19" viewBox="0 0 19 19" stroke="#0BCDED" fill="none" xmlns="http://www.w3.org/2000/svg">
<path d="M1 5.5C1 3.61438 1 2.67157 1.58579 2.08579C2.17157 1.5 3.11438 1.5 5 1.5H5.63215C6.49096 1.5 6.92036 1.5 7.30246 1.66648C7.68456 1.83297 7.97693 2.14746 8.56169 2.77644L9.37581 3.65213C9.96057 4.28111 10.2529 4.5956 10.635 4.76209C11.0171 4.92857 11.4465 4.92857 12.3054 4.92857H14C15.8856 4.92857 16.8284 4.92857 17.4142 5.51436C18 6.10014 18 7.04295 18 8.92857V13.5C18 15.3856 18 16.3284 17.4142 16.9142C16.8284 17.5 15.8856 17.5 14 17.5H5C3.11438 17.5 2.17157 17.5 1.58579 16.9142C1 16.3284 1 15.3856 1 13.5V5.5Z" stroke-width="2"/>
</svg>
