<svg width="402" height="367" viewBox="0 0 402 367" fill="none" xmlns="http://www.w3.org/2000/svg">
<path d="M130.551 52.3259L130.449 51.8364L130.551 52.3259ZM366.186 104.191L366.685 104.155L366.186 104.191ZM210.583 315.269L210.409 315.738L210.583 315.269ZM130.653 52.8154C180.245 42.4951 237.139 28.7254 282.612 30.8869C305.34 31.9672 325.143 37.0264 339.737 48.4267C354.314 59.8126 363.764 77.5782 365.688 104.227L366.685 104.155C364.745 77.2873 355.197 59.234 340.353 47.6386C325.527 36.0576 305.486 30.973 282.66 29.888C237.024 27.7188 179.963 41.5324 130.449 51.8364L130.653 52.8154ZM365.688 104.227C370.507 170.982 346.772 229.237 314.299 267.997C298.062 287.378 279.653 301.87 261.557 310.117C243.458 318.366 225.712 320.352 210.757 314.8L210.409 315.738C225.688 321.41 243.718 319.347 261.972 311.027C280.229 302.706 298.753 288.111 315.066 268.64C347.692 229.696 371.525 171.188 366.685 104.155L365.688 104.227ZM210.757 314.8C195.025 308.96 167.439 292.693 138.575 270.785C109.718 248.881 79.6356 221.378 58.8912 193.095C38.1271 164.786 26.8177 135.833 35.2166 110.962C43.609 86.1107 71.7757 65.0681 130.653 52.8154L130.449 51.8364C71.4892 64.1063 42.8408 85.2601 34.2691 110.642C25.704 136.005 37.2818 165.324 58.0848 193.687C78.9074 222.076 109.072 249.646 137.971 271.581C166.862 293.511 194.54 309.847 210.409 315.738L210.757 314.8Z" fill="url(#paint0_linear_4139_25376)" fill-opacity="0.5"/>
<path d="M105.972 77.8864L105.769 77.4302L105.769 77.4302L105.972 77.8864ZM347.092 77.2472L347.571 77.1035L347.092 77.2472ZM240.153 317.278L240.083 317.774L240.153 317.278ZM106.176 78.3426C152.397 57.4672 205.011 31.6335 249.87 23.8455C272.291 19.9531 292.704 20.5835 309.383 28.541C326.042 36.4885 339.055 51.7827 346.613 77.3909L347.571 77.1035C339.95 51.2846 326.78 35.7305 309.816 27.6368C292.872 19.5533 272.221 18.9498 249.703 22.8592C204.684 30.6749 151.916 56.5878 105.769 77.4302L106.176 78.3426ZM346.613 77.3909C365.545 141.541 354.787 203.605 331.343 248.53C319.62 270.994 304.735 289.155 288.824 301.15C272.91 313.147 256.007 318.949 240.222 316.783L240.083 317.774C256.21 319.988 273.373 314.048 289.422 301.949C305.475 289.848 320.45 271.56 332.227 248.992C355.783 203.853 366.582 141.521 347.571 77.1035L346.613 77.3909ZM240.222 316.783C223.617 314.503 193.216 304.621 160.365 289.506C127.522 274.395 92.2892 254.082 66.0072 230.974C39.7004 207.844 22.488 182.029 25.3878 155.91C28.2853 129.811 51.3015 103.127 106.176 78.3426L105.769 77.4302C50.8173 102.249 27.3544 129.146 24.395 155.803C21.4378 182.439 38.9907 208.554 65.3468 231.727C91.7277 254.922 127.055 275.283 159.946 290.416C192.828 305.545 223.334 315.475 240.083 317.774L240.222 316.783Z" fill="url(#paint1_linear_4139_25376)" fill-opacity="0.5"/>
<path d="M363.659 98.9364C351.342 -7.65829 224.149 32.5026 126.026 57.4557C-107.313 116.795 153.124 295.98 217.273 316.649C278.646 336.423 379.054 232.18 363.659 98.9364Z" stroke="url(#paint2_linear_4139_25376)" stroke-opacity="0.5"/>
<path d="M360.483 93.587C343.6 -12.3705 218.256 33.3335 121.3 62.5684C-109.263 132.09 158.616 299.687 223.59 317.523C285.753 334.587 381.586 226.034 360.483 93.587Z" stroke="url(#paint3_linear_4139_25376)" stroke-opacity="0.5"/>
<path d="M356.666 88.1684C335.249 -16.9521 211.991 34.2089 116.385 67.6704C-110.968 147.243 163.848 302.936 229.525 317.906C292.359 332.228 383.437 219.569 356.666 88.1684Z" stroke="url(#paint4_linear_4139_25376)" stroke-opacity="0.5"/>
<path d="M352.203 82.713C326.292 -21.3723 205.351 35.1491 111.275 72.7743C-112.438 162.248 168.797 305.744 235.052 317.819C298.441 329.371 384.591 212.82 352.203 82.713Z" stroke="url(#paint5_linear_4139_25376)" stroke-opacity="0.5"/>
<g filter="url(#filter0_d_4139_25376)">
<path d="M108.994 164V130.638H116.529V164H108.994ZM108.994 127.302V119.709H116.529V127.302H108.994ZM128.801 164C127.305 164 125.963 163.636 124.774 162.907C123.586 162.179 122.627 161.22 121.898 160.031C121.208 158.842 120.863 157.519 120.863 156.062V138.576C120.863 137.119 121.208 135.796 121.898 134.607C122.627 133.418 123.586 132.459 124.774 131.731C125.963 131.002 127.305 130.638 128.801 130.638H147.265V119.709H154.8V164H128.801ZM129.146 156.465H146.575C146.767 156.465 146.92 156.407 147.035 156.292C147.188 156.139 147.265 155.966 147.265 155.775V138.863C147.265 138.672 147.188 138.518 147.035 138.403C146.92 138.25 146.767 138.173 146.575 138.173H129.146C128.954 138.173 128.782 138.25 128.628 138.403C128.513 138.518 128.456 138.672 128.456 138.863V155.775C128.456 155.966 128.513 156.139 128.628 156.292C128.782 156.407 128.954 156.465 129.146 156.465ZM167.542 164C166.085 164 164.762 163.636 163.573 162.907C162.384 162.179 161.425 161.22 160.697 160.031C159.968 158.842 159.604 157.519 159.604 156.062V138.576C159.604 137.119 159.968 135.796 160.697 134.607C161.425 133.418 162.384 132.459 163.573 131.731C164.762 131.002 166.085 130.638 167.542 130.638H185.546C187.003 130.638 188.326 131.002 189.515 131.731C190.742 132.459 191.7 133.418 192.391 134.607C193.119 135.796 193.484 137.119 193.484 138.576V151.115H167.139V155.775C167.139 155.966 167.197 156.139 167.312 156.292C167.465 156.407 167.638 156.465 167.829 156.465H193.484V164H167.542ZM167.139 144.328H185.948V138.863C185.948 138.672 185.872 138.518 185.718 138.403C185.603 138.25 185.45 138.173 185.258 138.173H167.829C167.638 138.173 167.465 138.25 167.312 138.403C167.197 138.518 167.139 138.672 167.139 138.863V144.328ZM199.603 164V130.638H225.545C227.002 130.638 228.325 131.002 229.514 131.731C230.741 132.459 231.7 133.418 232.39 134.607C233.118 135.796 233.483 137.119 233.483 138.576V164H225.947V138.863C225.947 138.672 225.871 138.518 225.717 138.403C225.602 138.25 225.449 138.173 225.257 138.173H207.828C207.637 138.173 207.464 138.25 207.311 138.403C207.196 138.518 207.138 138.672 207.138 138.863V164H199.603ZM247.534 164C246.077 164 244.754 163.636 243.565 162.907C242.377 162.179 241.418 161.22 240.689 160.031C239.961 158.842 239.596 157.519 239.596 156.062V120.399H247.132V130.638H260.131V138.173H247.132V155.775C247.132 155.966 247.189 156.139 247.304 156.292C247.458 156.407 247.63 156.465 247.822 156.465H260.131V164H247.534ZM264.817 164V130.638H272.352V164H264.817ZM264.817 127.302V119.709H272.352V127.302H264.817ZM277.279 164V161.987L289.531 147.031L277.279 132.651V130.638H285.447L294.42 141.222L303.393 130.638H311.561V132.651L299.309 147.031L311.561 161.987V164H303.451L294.42 152.956L285.447 164H277.279ZM109.109 212.593V205.058H150.178V212.593H109.109ZM156.743 218.23V171.638H182.685C184.142 171.638 185.465 172.002 186.654 172.731C187.881 173.459 188.84 174.418 189.53 175.607C190.259 176.796 190.623 178.119 190.623 179.576V197.062C190.623 198.519 190.259 199.842 189.53 201.031C188.84 202.22 187.881 203.179 186.654 203.907C185.465 204.636 184.142 205 182.685 205H164.278V218.23H156.743ZM164.969 197.465H182.397C182.589 197.465 182.742 197.407 182.858 197.292C183.011 197.139 183.088 196.966 183.088 196.775V179.863C183.088 179.672 183.011 179.518 182.858 179.403C182.742 179.25 182.589 179.173 182.397 179.173H164.969C164.777 179.173 164.604 179.25 164.451 179.403C164.336 179.518 164.278 179.672 164.278 179.863V196.775C164.278 196.966 164.336 197.139 164.451 197.292C164.604 197.407 164.777 197.465 164.969 197.465ZM202.763 205C201.306 205 199.964 204.636 198.737 203.907C197.548 203.179 196.589 202.22 195.861 201.031C195.171 199.842 194.825 198.519 194.825 197.062V184.523H221.17V179.863C221.17 179.672 221.093 179.518 220.94 179.403C220.825 179.25 220.672 179.173 220.48 179.173H194.825V171.638H220.767C222.225 171.638 223.548 172.002 224.736 172.731C225.963 173.459 226.922 174.418 227.612 175.607C228.341 176.796 228.705 178.119 228.705 179.576V205H202.763ZM203.051 197.465H221.17V191.31H202.361V196.775C202.361 196.966 202.418 197.139 202.533 197.292C202.687 197.407 202.859 197.465 203.051 197.465ZM241.236 205C239.779 205 238.456 204.636 237.267 203.907C236.079 203.179 235.12 202.22 234.391 201.031C233.663 199.842 233.298 198.519 233.298 197.062V195.797H240.834V196.775C240.834 196.966 240.891 197.139 241.006 197.292C241.16 197.407 241.332 197.465 241.524 197.465H258.953C259.144 197.465 259.298 197.407 259.413 197.292C259.566 197.139 259.643 196.966 259.643 196.775V192.806C259.643 192.614 259.566 192.46 259.413 192.345C259.298 192.192 259.144 192.115 258.953 192.115H241.236C239.779 192.115 238.456 191.751 237.267 191.022C236.079 190.294 235.12 189.335 234.391 188.146C233.663 186.958 233.298 185.635 233.298 184.177V179.576C233.298 178.119 233.663 176.796 234.391 175.607C235.12 174.418 236.079 173.459 237.267 172.731C238.456 172.002 239.779 171.638 241.236 171.638H259.24C260.736 171.638 262.078 172.002 263.267 172.731C264.456 173.459 265.414 174.418 266.143 175.607C266.871 176.796 267.236 178.119 267.236 179.576V180.841H259.643V179.863C259.643 179.672 259.566 179.518 259.413 179.403C259.298 179.25 259.144 179.173 258.953 179.173H241.524C241.332 179.173 241.16 179.25 241.006 179.403C240.891 179.518 240.834 179.672 240.834 179.863V183.832C240.834 184.024 240.891 184.197 241.006 184.35C241.16 184.465 241.332 184.523 241.524 184.523H259.24C260.736 184.523 262.078 184.887 263.267 185.615C264.456 186.344 265.414 187.303 266.143 188.492C266.871 189.68 267.236 191.003 267.236 192.46V197.062C267.236 198.519 266.871 199.842 266.143 201.031C265.414 202.22 264.456 203.179 263.267 203.907C262.078 204.636 260.736 205 259.24 205H241.236ZM280.67 205C279.212 205 277.889 204.636 276.701 203.907C275.512 203.179 274.553 202.22 273.825 201.031C273.096 199.842 272.732 198.519 272.732 197.062V195.797H280.267V196.775C280.267 196.966 280.324 197.139 280.439 197.292C280.593 197.407 280.765 197.465 280.957 197.465H298.386C298.578 197.465 298.731 197.407 298.846 197.292C299 197.139 299.076 196.966 299.076 196.775V192.806C299.076 192.614 299 192.46 298.846 192.345C298.731 192.192 298.578 192.115 298.386 192.115H280.67C279.212 192.115 277.889 191.751 276.701 191.022C275.512 190.294 274.553 189.335 273.825 188.146C273.096 186.958 272.732 185.635 272.732 184.177V179.576C272.732 178.119 273.096 176.796 273.825 175.607C274.553 174.418 275.512 173.459 276.701 172.731C277.889 172.002 279.212 171.638 280.67 171.638H298.674C300.169 171.638 301.511 172.002 302.7 172.731C303.889 173.459 304.848 174.418 305.576 175.607C306.305 176.796 306.669 178.119 306.669 179.576V180.841H299.076V179.863C299.076 179.672 299 179.518 298.846 179.403C298.731 179.25 298.578 179.173 298.386 179.173H280.957C280.765 179.173 280.593 179.25 280.439 179.403C280.324 179.518 280.267 179.672 280.267 179.863V183.832C280.267 184.024 280.324 184.197 280.439 184.35C280.593 184.465 280.765 184.523 280.957 184.523H298.674C300.169 184.523 301.511 184.887 302.7 185.615C303.889 186.344 304.848 187.303 305.576 188.492C306.305 189.68 306.669 191.003 306.669 192.46V197.062C306.669 198.519 306.305 199.842 305.576 201.031C304.848 202.22 303.889 203.179 302.7 203.907C301.511 204.636 300.169 205 298.674 205H280.67Z" fill="url(#paint6_linear_4139_25376)"/>
<path d="M108.994 164V130.638H116.529V164H108.994ZM108.994 127.302V119.709H116.529V127.302H108.994ZM128.801 164C127.305 164 125.963 163.636 124.774 162.907C123.586 162.179 122.627 161.22 121.898 160.031C121.208 158.842 120.863 157.519 120.863 156.062V138.576C120.863 137.119 121.208 135.796 121.898 134.607C122.627 133.418 123.586 132.459 124.774 131.731C125.963 131.002 127.305 130.638 128.801 130.638H147.265V119.709H154.8V164H128.801ZM129.146 156.465H146.575C146.767 156.465 146.92 156.407 147.035 156.292C147.188 156.139 147.265 155.966 147.265 155.775V138.863C147.265 138.672 147.188 138.518 147.035 138.403C146.92 138.25 146.767 138.173 146.575 138.173H129.146C128.954 138.173 128.782 138.25 128.628 138.403C128.513 138.518 128.456 138.672 128.456 138.863V155.775C128.456 155.966 128.513 156.139 128.628 156.292C128.782 156.407 128.954 156.465 129.146 156.465ZM167.542 164C166.085 164 164.762 163.636 163.573 162.907C162.384 162.179 161.425 161.22 160.697 160.031C159.968 158.842 159.604 157.519 159.604 156.062V138.576C159.604 137.119 159.968 135.796 160.697 134.607C161.425 133.418 162.384 132.459 163.573 131.731C164.762 131.002 166.085 130.638 167.542 130.638H185.546C187.003 130.638 188.326 131.002 189.515 131.731C190.742 132.459 191.7 133.418 192.391 134.607C193.119 135.796 193.484 137.119 193.484 138.576V151.115H167.139V155.775C167.139 155.966 167.197 156.139 167.312 156.292C167.465 156.407 167.638 156.465 167.829 156.465H193.484V164H167.542ZM167.139 144.328H185.948V138.863C185.948 138.672 185.872 138.518 185.718 138.403C185.603 138.25 185.45 138.173 185.258 138.173H167.829C167.638 138.173 167.465 138.25 167.312 138.403C167.197 138.518 167.139 138.672 167.139 138.863V144.328ZM199.603 164V130.638H225.545C227.002 130.638 228.325 131.002 229.514 131.731C230.741 132.459 231.7 133.418 232.39 134.607C233.118 135.796 233.483 137.119 233.483 138.576V164H225.947V138.863C225.947 138.672 225.871 138.518 225.717 138.403C225.602 138.25 225.449 138.173 225.257 138.173H207.828C207.637 138.173 207.464 138.25 207.311 138.403C207.196 138.518 207.138 138.672 207.138 138.863V164H199.603ZM247.534 164C246.077 164 244.754 163.636 243.565 162.907C242.377 162.179 241.418 161.22 240.689 160.031C239.961 158.842 239.596 157.519 239.596 156.062V120.399H247.132V130.638H260.131V138.173H247.132V155.775C247.132 155.966 247.189 156.139 247.304 156.292C247.458 156.407 247.63 156.465 247.822 156.465H260.131V164H247.534ZM264.817 164V130.638H272.352V164H264.817ZM264.817 127.302V119.709H272.352V127.302H264.817ZM277.279 164V161.987L289.531 147.031L277.279 132.651V130.638H285.447L294.42 141.222L303.393 130.638H311.561V132.651L299.309 147.031L311.561 161.987V164H303.451L294.42 152.956L285.447 164H277.279ZM109.109 212.593V205.058H150.178V212.593H109.109ZM156.743 218.23V171.638H182.685C184.142 171.638 185.465 172.002 186.654 172.731C187.881 173.459 188.84 174.418 189.53 175.607C190.259 176.796 190.623 178.119 190.623 179.576V197.062C190.623 198.519 190.259 199.842 189.53 201.031C188.84 202.22 187.881 203.179 186.654 203.907C185.465 204.636 184.142 205 182.685 205H164.278V218.23H156.743ZM164.969 197.465H182.397C182.589 197.465 182.742 197.407 182.858 197.292C183.011 197.139 183.088 196.966 183.088 196.775V179.863C183.088 179.672 183.011 179.518 182.858 179.403C182.742 179.25 182.589 179.173 182.397 179.173H164.969C164.777 179.173 164.604 179.25 164.451 179.403C164.336 179.518 164.278 179.672 164.278 179.863V196.775C164.278 196.966 164.336 197.139 164.451 197.292C164.604 197.407 164.777 197.465 164.969 197.465ZM202.763 205C201.306 205 199.964 204.636 198.737 203.907C197.548 203.179 196.589 202.22 195.861 201.031C195.171 199.842 194.825 198.519 194.825 197.062V184.523H221.17V179.863C221.17 179.672 221.093 179.518 220.94 179.403C220.825 179.25 220.672 179.173 220.48 179.173H194.825V171.638H220.767C222.225 171.638 223.548 172.002 224.736 172.731C225.963 173.459 226.922 174.418 227.612 175.607C228.341 176.796 228.705 178.119 228.705 179.576V205H202.763ZM203.051 197.465H221.17V191.31H202.361V196.775C202.361 196.966 202.418 197.139 202.533 197.292C202.687 197.407 202.859 197.465 203.051 197.465ZM241.236 205C239.779 205 238.456 204.636 237.267 203.907C236.079 203.179 235.12 202.22 234.391 201.031C233.663 199.842 233.298 198.519 233.298 197.062V195.797H240.834V196.775C240.834 196.966 240.891 197.139 241.006 197.292C241.16 197.407 241.332 197.465 241.524 197.465H258.953C259.144 197.465 259.298 197.407 259.413 197.292C259.566 197.139 259.643 196.966 259.643 196.775V192.806C259.643 192.614 259.566 192.46 259.413 192.345C259.298 192.192 259.144 192.115 258.953 192.115H241.236C239.779 192.115 238.456 191.751 237.267 191.022C236.079 190.294 235.12 189.335 234.391 188.146C233.663 186.958 233.298 185.635 233.298 184.177V179.576C233.298 178.119 233.663 176.796 234.391 175.607C235.12 174.418 236.079 173.459 237.267 172.731C238.456 172.002 239.779 171.638 241.236 171.638H259.24C260.736 171.638 262.078 172.002 263.267 172.731C264.456 173.459 265.414 174.418 266.143 175.607C266.871 176.796 267.236 178.119 267.236 179.576V180.841H259.643V179.863C259.643 179.672 259.566 179.518 259.413 179.403C259.298 179.25 259.144 179.173 258.953 179.173H241.524C241.332 179.173 241.16 179.25 241.006 179.403C240.891 179.518 240.834 179.672 240.834 179.863V183.832C240.834 184.024 240.891 184.197 241.006 184.35C241.16 184.465 241.332 184.523 241.524 184.523H259.24C260.736 184.523 262.078 184.887 263.267 185.615C264.456 186.344 265.414 187.303 266.143 188.492C266.871 189.68 267.236 191.003 267.236 192.46V197.062C267.236 198.519 266.871 199.842 266.143 201.031C265.414 202.22 264.456 203.179 263.267 203.907C262.078 204.636 260.736 205 259.24 205H241.236ZM280.67 205C279.212 205 277.889 204.636 276.701 203.907C275.512 203.179 274.553 202.22 273.825 201.031C273.096 199.842 272.732 198.519 272.732 197.062V195.797H280.267V196.775C280.267 196.966 280.324 197.139 280.439 197.292C280.593 197.407 280.765 197.465 280.957 197.465H298.386C298.578 197.465 298.731 197.407 298.846 197.292C299 197.139 299.076 196.966 299.076 196.775V192.806C299.076 192.614 299 192.46 298.846 192.345C298.731 192.192 298.578 192.115 298.386 192.115H280.67C279.212 192.115 277.889 191.751 276.701 191.022C275.512 190.294 274.553 189.335 273.825 188.146C273.096 186.958 272.732 185.635 272.732 184.177V179.576C272.732 178.119 273.096 176.796 273.825 175.607C274.553 174.418 275.512 173.459 276.701 172.731C277.889 172.002 279.212 171.638 280.67 171.638H298.674C300.169 171.638 301.511 172.002 302.7 172.731C303.889 173.459 304.848 174.418 305.576 175.607C306.305 176.796 306.669 178.119 306.669 179.576V180.841H299.076V179.863C299.076 179.672 299 179.518 298.846 179.403C298.731 179.25 298.578 179.173 298.386 179.173H280.957C280.765 179.173 280.593 179.25 280.439 179.403C280.324 179.518 280.267 179.672 280.267 179.863V183.832C280.267 184.024 280.324 184.197 280.439 184.35C280.593 184.465 280.765 184.523 280.957 184.523H298.674C300.169 184.523 301.511 184.887 302.7 185.615C303.889 186.344 304.848 187.303 305.576 188.492C306.305 189.68 306.669 191.003 306.669 192.46V197.062C306.669 198.519 306.305 199.842 305.576 201.031C304.848 202.22 303.889 203.179 302.7 203.907C301.511 204.636 300.169 205 298.674 205H280.67Z" fill="url(#paint7_linear_4139_25376)"/>
<path d="M108.994 164H108.156V164.838H108.994V164ZM108.994 130.638V129.8H108.156V130.638H108.994ZM116.529 130.638H117.366V129.8H116.529V130.638ZM116.529 164V164.838H117.366V164H116.529ZM108.994 127.302H108.156V128.139H108.994V127.302ZM108.994 119.709V118.871H108.156V119.709H108.994ZM116.529 119.709H117.366V118.871H116.529V119.709ZM116.529 127.302V128.139H117.366V127.302H116.529ZM109.831 164V130.638H108.156V164H109.831ZM108.994 131.475H116.529V129.8H108.994V131.475ZM115.691 130.638V164H117.366V130.638H115.691ZM116.529 163.162H108.994V164.838H116.529V163.162ZM109.831 127.302V119.709H108.156V127.302H109.831ZM108.994 120.546H116.529V118.871H108.994V120.546ZM115.691 119.709V127.302H117.366V119.709H115.691ZM116.529 126.464H108.994V128.139H116.529V126.464ZM121.898 160.031L121.174 160.452L121.179 160.46L121.184 160.469L121.898 160.031ZM121.898 134.607L121.184 134.169L121.179 134.178L121.174 134.186L121.898 134.607ZM124.774 131.731L125.212 132.445L124.774 131.731ZM147.265 130.638V131.475H148.103V130.638H147.265ZM147.265 119.709V118.871H146.428V119.709H147.265ZM154.8 119.709H155.638V118.871H154.8V119.709ZM154.8 164V164.838H155.638V164H154.8ZM147.035 156.292L146.443 155.7L147.035 156.292ZM147.035 138.403L146.365 138.906L146.437 139.001L146.533 139.073L147.035 138.403ZM128.628 138.403L129.221 138.995L129.221 138.995L128.628 138.403ZM128.628 156.292L127.958 156.795L128.03 156.89L128.126 156.962L128.628 156.292ZM128.801 163.162C127.448 163.162 126.26 162.835 125.212 162.193L124.337 163.621C125.667 164.436 127.163 164.838 128.801 164.838V163.162ZM125.212 162.193C124.136 161.533 123.272 160.669 122.613 159.593L121.184 160.469C121.982 161.77 123.035 162.824 124.337 163.621L125.212 162.193ZM122.623 159.61C122.011 158.557 121.701 157.381 121.701 156.062H120.026C120.026 157.658 120.405 159.127 121.174 160.452L122.623 159.61ZM121.701 156.062V138.576H120.026V156.062H121.701ZM121.701 138.576C121.701 137.257 122.011 136.081 122.623 135.027L121.174 134.186C120.405 135.511 120.026 136.98 120.026 138.576H121.701ZM122.613 135.044C123.272 133.968 124.136 133.104 125.212 132.445L124.337 131.017C123.035 131.814 121.982 132.868 121.184 134.169L122.613 135.044ZM125.212 132.445C126.26 131.803 127.448 131.475 128.801 131.475V129.8C127.163 129.8 125.667 130.201 124.337 131.017L125.212 132.445ZM128.801 131.475H147.265V129.8H128.801V131.475ZM148.103 130.638V119.709H146.428V130.638H148.103ZM147.265 120.546H154.8V118.871H147.265V120.546ZM153.963 119.709V164H155.638V119.709H153.963ZM154.8 163.162H128.801V164.838H154.8V163.162ZM129.146 157.302H146.575V155.627H129.146V157.302ZM146.575 157.302C146.946 157.302 147.327 157.184 147.627 156.884L146.443 155.7C146.47 155.672 146.505 155.65 146.54 155.637C146.572 155.625 146.587 155.627 146.575 155.627V157.302ZM147.627 156.884C147.915 156.596 148.103 156.218 148.103 155.775H146.428C146.428 155.766 146.428 155.755 146.431 155.742C146.434 155.729 146.438 155.717 146.442 155.708C146.451 155.687 146.458 155.685 146.443 155.7L147.627 156.884ZM148.103 155.775V138.863H146.428V155.775H148.103ZM148.103 138.863C148.103 138.408 147.902 138.006 147.538 137.733L146.533 139.073C146.518 139.062 146.485 139.032 146.458 138.979C146.432 138.926 146.428 138.882 146.428 138.863H148.103ZM147.705 137.901C147.432 137.536 147.03 137.336 146.575 137.336V139.011C146.556 139.011 146.512 139.006 146.459 138.98C146.406 138.953 146.376 138.921 146.365 138.906L147.705 137.901ZM146.575 137.336H129.146V139.011H146.575V137.336ZM129.146 137.336C128.702 137.336 128.324 137.523 128.036 137.811L129.221 138.995C129.235 138.981 129.234 138.987 129.213 138.996C129.203 139 129.191 139.004 129.178 139.007C129.166 139.01 129.154 139.011 129.146 139.011V137.336ZM128.036 137.811C127.736 138.111 127.618 138.492 127.618 138.863H129.293C129.293 138.851 129.295 138.867 129.283 138.899C129.27 138.933 129.248 138.968 129.221 138.995L128.036 137.811ZM127.618 138.863V155.775H129.293V138.863H127.618ZM127.618 155.775C127.618 156.147 127.735 156.496 127.958 156.795L129.298 155.79C129.295 155.785 129.293 155.782 129.293 155.782C129.293 155.781 129.293 155.782 129.294 155.783C129.294 155.784 129.294 155.785 129.294 155.784C129.294 155.783 129.293 155.78 129.293 155.775H127.618ZM128.126 156.962C128.424 157.186 128.773 157.302 129.146 157.302V155.627C129.14 155.627 129.137 155.627 129.136 155.627C129.136 155.627 129.136 155.627 129.138 155.627C129.139 155.627 129.139 155.628 129.139 155.627C129.138 155.627 129.136 155.626 129.131 155.622L128.126 156.962ZM163.573 162.907L164.01 162.193L163.573 162.907ZM160.697 160.031L161.411 159.593L160.697 160.031ZM160.697 134.607L159.983 134.169V134.169L160.697 134.607ZM163.573 131.731L164.01 132.445L163.573 131.731ZM189.515 131.731L189.077 132.445L189.087 132.451L189.515 131.731ZM192.391 134.607L191.666 135.027L191.671 135.036L191.677 135.044L192.391 134.607ZM193.484 151.115V151.953H194.321V151.115H193.484ZM167.139 151.115V150.278H166.302V151.115H167.139ZM167.312 156.292L166.642 156.795L166.713 156.89L166.809 156.962L167.312 156.292ZM193.484 156.465H194.321V155.627H193.484V156.465ZM193.484 164V164.838H194.321V164H193.484ZM167.139 144.328H166.302V145.165H167.139V144.328ZM185.948 144.328V145.165H186.786V144.328H185.948ZM185.718 138.403L185.048 138.906L185.12 139.001L185.216 139.073L185.718 138.403ZM167.312 138.403L167.904 138.995L167.312 138.403ZM167.542 163.162C166.232 163.162 165.061 162.837 164.01 162.193L163.135 163.621C164.462 164.434 165.937 164.838 167.542 164.838V163.162ZM164.01 162.193C162.934 161.533 162.07 160.669 161.411 159.593L159.983 160.469C160.78 161.77 161.834 162.824 163.135 163.621L164.01 162.193ZM161.411 159.593C160.767 158.542 160.441 157.372 160.441 156.062H158.766C158.766 157.666 159.17 159.142 159.983 160.469L161.411 159.593ZM160.441 156.062V138.576H158.766V156.062H160.441ZM160.441 138.576C160.441 137.266 160.767 136.095 161.411 135.044L159.983 134.169C159.17 135.496 158.766 136.971 158.766 138.576H160.441ZM161.411 135.044C162.07 133.968 162.934 133.104 164.01 132.445L163.135 131.017C161.834 131.814 160.78 132.868 159.983 134.169L161.411 135.044ZM164.01 132.445C165.061 131.801 166.232 131.475 167.542 131.475V129.8C165.937 129.8 164.462 130.204 163.135 131.017L164.01 132.445ZM167.542 131.475H185.546V129.8H167.542V131.475ZM185.546 131.475C186.856 131.475 188.026 131.801 189.077 132.445L189.952 131.017C188.626 130.204 187.15 129.8 185.546 129.8V131.475ZM189.087 132.451C190.196 133.11 191.051 133.967 191.666 135.027L193.115 134.186C192.35 132.869 191.287 131.809 189.942 131.011L189.087 132.451ZM191.677 135.044C192.321 136.095 192.646 137.266 192.646 138.576H194.321C194.321 136.971 193.918 135.496 193.105 134.169L191.677 135.044ZM192.646 138.576V151.115H194.321V138.576H192.646ZM193.484 150.278H167.139V151.953H193.484V150.278ZM166.302 151.115V155.775H167.977V151.115H166.302ZM166.302 155.775C166.302 156.147 166.418 156.496 166.642 156.795L167.982 155.79C167.978 155.785 167.977 155.782 167.976 155.782C167.976 155.781 167.976 155.782 167.977 155.783C167.977 155.784 167.977 155.785 167.977 155.784C167.977 155.783 167.977 155.78 167.977 155.775H166.302ZM166.809 156.962C167.107 157.186 167.456 157.302 167.829 157.302V155.627C167.823 155.627 167.82 155.627 167.82 155.627C167.819 155.627 167.82 155.627 167.821 155.627C167.822 155.627 167.823 155.628 167.822 155.627C167.822 155.627 167.819 155.626 167.814 155.622L166.809 156.962ZM167.829 157.302H193.484V155.627H167.829V157.302ZM192.646 156.465V164H194.321V156.465H192.646ZM193.484 163.162H167.542V164.838H193.484V163.162ZM167.139 145.165H185.948V143.49H167.139V145.165ZM186.786 144.328V138.863H185.111V144.328H186.786ZM186.786 138.863C186.786 138.408 186.585 138.006 186.221 137.733L185.216 139.073C185.201 139.062 185.168 139.032 185.142 138.979C185.115 138.926 185.111 138.882 185.111 138.863H186.786ZM186.388 137.901C186.115 137.536 185.713 137.336 185.258 137.336V139.011C185.239 139.011 185.195 139.006 185.142 138.98C185.09 138.953 185.059 138.921 185.048 138.906L186.388 137.901ZM185.258 137.336H167.829V139.011H185.258V137.336ZM167.829 137.336C167.386 137.336 167.007 137.523 166.719 137.811L167.904 138.995C167.919 138.981 167.917 138.987 167.896 138.996C167.886 139 167.875 139.004 167.862 139.007C167.849 139.01 167.838 139.011 167.829 139.011V137.336ZM166.719 137.811C166.419 138.111 166.302 138.492 166.302 138.863H167.977C167.977 138.851 167.978 138.867 167.966 138.899C167.953 138.933 167.931 138.968 167.904 138.995L166.719 137.811ZM166.302 138.863V144.328H167.977V138.863H166.302ZM199.603 164H198.765V164.838H199.603V164ZM199.603 130.638V129.8H198.765V130.638H199.603ZM229.514 131.731L229.076 132.445L229.086 132.451L229.514 131.731ZM232.39 134.607L231.665 135.027L231.67 135.036L231.676 135.044L232.39 134.607ZM233.483 164V164.838H234.32V164H233.483ZM225.947 164H225.11V164.838H225.947V164ZM225.717 138.403L225.047 138.906L225.119 139.001L225.215 139.073L225.717 138.403ZM207.311 138.403L207.903 138.995V138.995L207.311 138.403ZM207.138 164V164.838H207.976V164H207.138ZM200.44 164V130.638H198.765V164H200.44ZM199.603 131.475H225.545V129.8H199.603V131.475ZM225.545 131.475C226.855 131.475 228.025 131.801 229.076 132.445L229.951 131.017C228.625 130.204 227.149 129.8 225.545 129.8V131.475ZM229.086 132.451C230.195 133.11 231.05 133.967 231.665 135.027L233.114 134.186C232.349 132.869 231.286 131.809 229.941 131.011L229.086 132.451ZM231.676 135.044C232.32 136.095 232.645 137.266 232.645 138.576H234.32C234.32 136.971 233.917 135.496 233.104 134.169L231.676 135.044ZM232.645 138.576V164H234.32V138.576H232.645ZM233.483 163.162H225.947V164.838H233.483V163.162ZM226.785 164V138.863H225.11V164H226.785ZM226.785 138.863C226.785 138.408 226.584 138.006 226.22 137.733L225.215 139.073C225.2 139.062 225.167 139.032 225.141 138.979C225.114 138.926 225.11 138.882 225.11 138.863H226.785ZM226.387 137.901C226.114 137.536 225.713 137.336 225.257 137.336V139.011C225.239 139.011 225.194 139.006 225.141 138.98C225.089 138.953 225.058 138.921 225.047 138.906L226.387 137.901ZM225.257 137.336H207.828V139.011H225.257V137.336ZM207.828 137.336C207.385 137.336 207.006 137.523 206.718 137.811L207.903 138.995C207.918 138.981 207.916 138.987 207.895 138.996C207.885 139 207.874 139.004 207.861 139.007C207.848 139.01 207.837 139.011 207.828 139.011V137.336ZM206.718 137.811C206.419 138.111 206.301 138.492 206.301 138.863H207.976C207.976 138.851 207.977 138.867 207.965 138.899C207.953 138.933 207.931 138.968 207.903 138.995L206.718 137.811ZM206.301 138.863V164H207.976V138.863H206.301ZM207.138 163.162H199.603V164.838H207.138V163.162ZM243.565 162.907L244.003 162.193L243.565 162.907ZM240.689 160.031L241.403 159.593L240.689 160.031ZM239.596 120.399V119.562H238.759V120.399H239.596ZM247.132 120.399H247.969V119.562H247.132V120.399ZM247.132 130.638H246.294V131.475H247.132V130.638ZM260.131 130.638H260.969V129.8H260.131V130.638ZM260.131 138.173V139.011H260.969V138.173H260.131ZM247.132 138.173V137.336H246.294V138.173H247.132ZM247.304 156.292L246.634 156.795L246.706 156.89L246.802 156.962L247.304 156.292ZM260.131 156.465H260.969V155.627H260.131V156.465ZM260.131 164V164.838H260.969V164H260.131ZM247.534 163.162C246.224 163.162 245.054 162.837 244.003 162.193L243.128 163.621C244.454 164.434 245.93 164.838 247.534 164.838V163.162ZM244.003 162.193C242.927 161.533 242.063 160.669 241.403 159.593L239.975 160.469C240.773 161.77 241.826 162.824 243.128 163.621L244.003 162.193ZM241.403 159.593C240.759 158.542 240.434 157.372 240.434 156.062H238.759C238.759 157.666 239.162 159.142 239.975 160.469L241.403 159.593ZM240.434 156.062V120.399H238.759V156.062H240.434ZM239.596 121.237H247.132V119.562H239.596V121.237ZM246.294 120.399V130.638H247.969V120.399H246.294ZM247.132 131.475H260.131V129.8H247.132V131.475ZM259.294 130.638V138.173H260.969V130.638H259.294ZM260.131 137.336H247.132V139.011H260.131V137.336ZM246.294 138.173V155.775H247.969V138.173H246.294ZM246.294 155.775C246.294 156.147 246.41 156.496 246.634 156.795L247.974 155.79C247.971 155.785 247.969 155.782 247.969 155.782C247.969 155.781 247.969 155.782 247.969 155.783C247.97 155.784 247.97 155.785 247.97 155.784C247.97 155.783 247.969 155.78 247.969 155.775H246.294ZM246.802 156.962C247.1 157.186 247.449 157.302 247.822 157.302V155.627C247.816 155.627 247.813 155.627 247.812 155.627C247.812 155.627 247.812 155.627 247.814 155.627C247.815 155.627 247.815 155.628 247.815 155.627C247.814 155.627 247.812 155.626 247.807 155.622L246.802 156.962ZM247.822 157.302H260.131V155.627H247.822V157.302ZM259.294 156.465V164H260.969V156.465H259.294ZM260.131 163.162H247.534V164.838H260.131V163.162ZM264.817 164H263.979V164.838H264.817V164ZM264.817 130.638V129.8H263.979V130.638H264.817ZM272.352 130.638H273.189V129.8H272.352V130.638ZM272.352 164V164.838H273.189V164H272.352ZM264.817 127.302H263.979V128.139H264.817V127.302ZM264.817 119.709V118.871H263.979V119.709H264.817ZM272.352 119.709H273.189V118.871H272.352V119.709ZM272.352 127.302V128.139H273.189V127.302H272.352ZM265.654 164V130.638H263.979V164H265.654ZM264.817 131.475H272.352V129.8H264.817V131.475ZM271.514 130.638V164H273.189V130.638H271.514ZM272.352 163.162H264.817V164.838H272.352V163.162ZM265.654 127.302V119.709H263.979V127.302H265.654ZM264.817 120.546H272.352V118.871H264.817V120.546ZM271.514 119.709V127.302H273.189V119.709H271.514ZM272.352 126.464H264.817V128.139H272.352V126.464ZM277.279 164H276.441V164.838H277.279V164ZM277.279 161.987L276.631 161.456L276.441 161.688V161.987H277.279ZM289.531 147.031L290.179 147.562L290.622 147.021L290.168 146.488L289.531 147.031ZM277.279 132.651H276.441V132.96L276.641 133.194L277.279 132.651ZM277.279 130.638V129.8H276.441V130.638H277.279ZM285.447 130.638L286.086 130.096L285.835 129.8H285.447V130.638ZM294.42 141.222L293.781 141.763L294.42 142.517L295.059 141.763L294.42 141.222ZM303.393 130.638V129.8H303.005L302.755 130.096L303.393 130.638ZM311.561 130.638H312.399V129.8H311.561V130.638ZM311.561 132.651L312.199 133.194L312.399 132.96V132.651H311.561ZM299.309 147.031L298.672 146.488L298.218 147.021L298.662 147.562L299.309 147.031ZM311.561 161.987H312.399V161.688L312.209 161.456L311.561 161.987ZM311.561 164V164.838H312.399V164H311.561ZM303.451 164L302.803 164.53L303.054 164.838H303.451V164ZM294.42 152.956L295.069 152.426L294.418 151.63L293.77 152.428L294.42 152.956ZM285.447 164V164.838H285.846L286.097 164.528L285.447 164ZM278.117 164V161.987H276.441V164H278.117ZM277.927 162.518L290.179 147.562L288.883 146.501L276.631 161.456L277.927 162.518ZM290.168 146.488L277.917 132.108L276.641 133.194L288.893 147.575L290.168 146.488ZM278.117 132.651V130.638H276.441V132.651H278.117ZM277.279 131.475H285.447V129.8H277.279V131.475ZM284.808 131.18L293.781 141.763L295.059 140.68L286.086 130.096L284.808 131.18ZM295.059 141.763L304.032 131.18L302.755 130.096L293.781 140.68L295.059 141.763ZM303.393 131.475H311.561V129.8H303.393V131.475ZM310.724 130.638V132.651H312.399V130.638H310.724ZM310.924 132.108L298.672 146.488L299.947 147.575L312.199 133.194L310.924 132.108ZM298.662 147.562L310.914 162.518L312.209 161.456L299.957 146.501L298.662 147.562ZM310.724 161.987V164H312.399V161.987H310.724ZM311.561 163.162H303.451V164.838H311.561V163.162ZM304.099 163.47L295.069 152.426L293.772 153.486L302.803 164.53L304.099 163.47ZM293.77 152.428L284.797 163.472L286.097 164.528L295.07 153.484L293.77 152.428ZM285.447 163.162H277.279V164.838H285.447V163.162ZM109.109 212.593H108.271V213.43H109.109V212.593ZM109.109 205.058V204.22H108.271V205.058H109.109ZM150.178 205.058H151.016V204.22H150.178V205.058ZM150.178 212.593V213.43H151.016V212.593H150.178ZM109.946 212.593V205.058H108.271V212.593H109.946ZM109.109 205.895H150.178V204.22H109.109V205.895ZM149.341 205.058V212.593H151.016V205.058H149.341ZM150.178 211.755H109.109V213.43H150.178V211.755ZM156.743 218.23H155.906V219.067H156.743V218.23ZM156.743 171.638V170.8H155.906V171.638H156.743ZM186.654 172.731L186.216 173.445L186.226 173.451L186.654 172.731ZM189.53 175.607L188.806 176.027L188.811 176.036L188.816 176.044L189.53 175.607ZM189.53 201.031L188.816 200.593L188.811 200.602L188.806 200.61L189.53 201.031ZM186.654 203.907L186.226 203.187L186.216 203.193L186.654 203.907ZM164.278 205V204.162H163.441V205H164.278ZM164.278 218.23V219.067H165.116V218.23H164.278ZM182.858 197.292L183.45 197.884L182.858 197.292ZM182.858 179.403L182.188 179.906L182.259 180.001L182.355 180.073L182.858 179.403ZM164.451 179.403L165.043 179.995L165.043 179.995L164.451 179.403ZM164.451 197.292L163.781 197.795L163.853 197.89L163.948 197.962L164.451 197.292ZM157.581 218.23V171.638H155.906V218.23H157.581ZM156.743 172.475H182.685V170.8H156.743V172.475ZM182.685 172.475C183.995 172.475 185.165 172.801 186.216 173.445L187.092 172.017C185.765 171.204 184.289 170.8 182.685 170.8V172.475ZM186.226 173.451C187.335 174.11 188.19 174.967 188.806 176.027L190.254 175.186C189.489 173.869 188.427 172.809 187.082 172.011L186.226 173.451ZM188.816 176.044C189.46 177.095 189.785 178.266 189.785 179.576H191.46C191.46 177.971 191.057 176.496 190.244 175.169L188.816 176.044ZM189.785 179.576V197.062H191.46V179.576H189.785ZM189.785 197.062C189.785 198.372 189.46 199.542 188.816 200.593L190.244 201.469C191.057 200.142 191.46 198.666 191.46 197.062H189.785ZM188.806 200.61C188.19 201.671 187.335 202.528 186.226 203.187L187.082 204.627C188.427 203.829 189.489 202.769 190.254 201.452L188.806 200.61ZM186.216 203.193C185.165 203.837 183.995 204.162 182.685 204.162V205.838C184.289 205.838 185.765 205.434 187.092 204.621L186.216 203.193ZM182.685 204.162H164.278V205.838H182.685V204.162ZM163.441 205V218.23H165.116V205H163.441ZM164.278 217.392H156.743V219.067H164.278V217.392ZM164.969 198.302H182.397V196.627H164.969V198.302ZM182.397 198.302C182.769 198.302 183.15 198.184 183.45 197.884L182.265 196.7C182.293 196.672 182.328 196.65 182.362 196.637C182.394 196.625 182.41 196.627 182.397 196.627V198.302ZM183.45 197.884C183.738 197.596 183.925 197.218 183.925 196.775H182.25C182.25 196.766 182.251 196.755 182.254 196.742C182.256 196.729 182.26 196.717 182.265 196.708C182.274 196.687 182.28 196.685 182.265 196.7L183.45 197.884ZM183.925 196.775V179.863H182.25V196.775H183.925ZM183.925 179.863C183.925 179.408 183.724 179.006 183.36 178.733L182.355 180.073C182.34 180.062 182.307 180.032 182.281 179.979C182.255 179.926 182.25 179.882 182.25 179.863H183.925ZM183.528 178.901C183.254 178.536 182.853 178.336 182.397 178.336V180.011C182.379 180.011 182.334 180.006 182.282 179.98C182.229 179.953 182.199 179.921 182.188 179.906L183.528 178.901ZM182.397 178.336H164.969V180.011H182.397V178.336ZM164.969 178.336C164.525 178.336 164.147 178.523 163.859 178.811L165.043 179.995C165.058 179.981 165.056 179.987 165.035 179.996C165.026 180 165.014 180.004 165.001 180.007C164.988 180.01 164.977 180.011 164.969 180.011V178.336ZM163.859 178.811C163.559 179.111 163.441 179.492 163.441 179.863H165.116C165.116 179.851 165.118 179.867 165.106 179.899C165.093 179.933 165.071 179.968 165.043 179.995L163.859 178.811ZM163.441 179.863V196.775H165.116V179.863H163.441ZM163.441 196.775C163.441 197.147 163.557 197.496 163.781 197.795L165.121 196.79C165.117 196.785 165.116 196.782 165.116 196.782C165.115 196.781 165.116 196.782 165.116 196.783C165.116 196.784 165.116 196.785 165.116 196.784C165.116 196.783 165.116 196.78 165.116 196.775H163.441ZM163.948 197.962C164.247 198.186 164.596 198.302 164.969 198.302V196.627C164.963 196.627 164.96 196.627 164.959 196.627C164.958 196.627 164.959 196.627 164.96 196.627C164.961 196.627 164.962 196.628 164.961 196.627C164.961 196.627 164.958 196.626 164.953 196.622L163.948 197.962ZM198.737 203.907L198.299 204.621L198.309 204.627L198.737 203.907ZM195.861 201.031L195.137 201.452L195.142 201.46L195.147 201.469L195.861 201.031ZM194.825 184.523V183.685H193.988V184.523H194.825ZM221.17 184.523V185.36H222.008V184.523H221.17ZM220.94 179.403L220.27 179.906L220.342 180.001L220.437 180.073L220.94 179.403ZM194.825 179.173H193.988V180.011H194.825V179.173ZM194.825 171.638V170.8H193.988V171.638H194.825ZM224.736 172.731L224.299 173.445L224.309 173.451L224.736 172.731ZM227.612 175.607L226.888 176.027L226.893 176.036L226.898 176.044L227.612 175.607ZM228.705 205V205.838H229.543V205H228.705ZM221.17 197.465V198.302H222.008V197.465H221.17ZM221.17 191.31H222.008V190.472H221.17V191.31ZM202.361 191.31V190.472H201.523V191.31H202.361ZM202.533 197.292L201.863 197.795L201.935 197.89L202.031 197.962L202.533 197.292ZM202.763 204.162C201.453 204.162 200.259 203.837 199.164 203.187L198.309 204.627C199.669 205.434 201.159 205.838 202.763 205.838V204.162ZM199.175 203.193C198.098 202.533 197.234 201.67 196.575 200.593L195.147 201.469C195.944 202.77 196.998 203.824 198.299 204.621L199.175 203.193ZM196.585 200.61C195.974 199.557 195.663 198.381 195.663 197.062H193.988C193.988 198.658 194.368 200.127 195.137 201.452L196.585 200.61ZM195.663 197.062V184.523H193.988V197.062H195.663ZM194.825 185.36H221.17V183.685H194.825V185.36ZM222.008 184.523V179.863H220.332V184.523H222.008ZM222.008 179.863C222.008 179.408 221.807 179.006 221.442 178.733L220.437 180.073C220.423 180.062 220.39 180.032 220.363 179.979C220.337 179.926 220.332 179.882 220.332 179.863H222.008ZM221.61 178.901C221.337 178.536 220.935 178.336 220.48 178.336V180.011C220.461 180.011 220.417 180.006 220.364 179.98C220.311 179.953 220.281 179.921 220.27 179.906L221.61 178.901ZM220.48 178.336H194.825V180.011H220.48V178.336ZM195.663 179.173V171.638H193.988V179.173H195.663ZM194.825 172.475H220.767V170.8H194.825V172.475ZM220.767 172.475C222.077 172.475 223.248 172.801 224.299 173.445L225.174 172.017C223.847 171.204 222.372 170.8 220.767 170.8V172.475ZM224.309 173.451C225.418 174.11 226.272 174.967 226.888 176.027L228.337 175.186C227.572 173.869 226.509 172.809 225.164 172.011L224.309 173.451ZM226.898 176.044C227.542 177.095 227.868 178.266 227.868 179.576H229.543C229.543 177.971 229.14 176.496 228.326 175.169L226.898 176.044ZM227.868 179.576V205H229.543V179.576H227.868ZM228.705 204.162H202.763V205.838H228.705V204.162ZM203.051 198.302H221.17V196.627H203.051V198.302ZM222.008 197.465V191.31H220.332V197.465H222.008ZM221.17 190.472H202.361V192.148H221.17V190.472ZM201.523 191.31V196.775H203.198V191.31H201.523ZM201.523 196.775C201.523 197.147 201.639 197.496 201.863 197.795L203.203 196.79C203.2 196.785 203.198 196.782 203.198 196.782C203.198 196.781 203.198 196.782 203.198 196.783C203.199 196.784 203.199 196.785 203.199 196.784C203.199 196.783 203.198 196.78 203.198 196.775H201.523ZM202.031 197.962C202.329 198.186 202.678 198.302 203.051 198.302V196.627C203.045 196.627 203.042 196.627 203.041 196.627C203.041 196.627 203.041 196.627 203.043 196.627C203.044 196.627 203.044 196.628 203.044 196.627C203.043 196.627 203.041 196.626 203.036 196.622L202.031 197.962ZM237.267 203.907L237.705 203.193L237.267 203.907ZM234.391 201.031L235.105 200.593L234.391 201.031ZM233.298 195.797V194.959H232.461V195.797H233.298ZM240.834 195.797H241.671V194.959H240.834V195.797ZM241.006 197.292L240.336 197.795L240.408 197.89L240.504 197.962L241.006 197.292ZM259.413 197.292L260.005 197.884L259.413 197.292ZM259.413 192.345L258.743 192.848L258.815 192.944L258.91 193.015L259.413 192.345ZM237.267 191.022L237.705 190.308L237.267 191.022ZM234.391 188.146L233.677 188.584L234.391 188.146ZM234.391 175.607L235.105 176.044L234.391 175.607ZM237.267 172.731L237.705 173.445L237.267 172.731ZM263.267 172.731L262.829 173.445L263.267 172.731ZM266.143 175.607L265.429 176.044L266.143 175.607ZM267.236 180.841V181.679H268.073V180.841H267.236ZM259.643 180.841H258.805V181.679H259.643V180.841ZM259.413 179.403L258.743 179.906L258.815 180.001L258.91 180.073L259.413 179.403ZM241.006 179.403L241.598 179.995L241.598 179.995L241.006 179.403ZM241.006 184.35L240.336 184.853L240.408 184.948L240.504 185.02L241.006 184.35ZM263.267 185.615L262.829 186.33L263.267 185.615ZM266.143 188.492L265.429 188.929L266.143 188.492ZM266.143 201.031L265.429 200.593L266.143 201.031ZM263.267 203.907L262.829 203.193L263.267 203.907ZM241.236 204.162C239.926 204.162 238.756 203.837 237.705 203.193L236.83 204.621C238.156 205.434 239.632 205.838 241.236 205.838V204.162ZM237.705 203.193C236.629 202.533 235.765 201.67 235.105 200.593L233.677 201.469C234.475 202.77 235.528 203.824 236.83 204.621L237.705 203.193ZM235.105 200.593C234.461 199.542 234.136 198.372 234.136 197.062H232.461C232.461 198.666 232.864 200.142 233.677 201.469L235.105 200.593ZM234.136 197.062V195.797H232.461V197.062H234.136ZM233.298 196.634H240.834V194.959H233.298V196.634ZM239.996 195.797V196.775H241.671V195.797H239.996ZM239.996 196.775C239.996 197.147 240.112 197.496 240.336 197.795L241.676 196.79C241.673 196.785 241.671 196.782 241.671 196.782C241.671 196.781 241.671 196.782 241.671 196.783C241.672 196.784 241.672 196.785 241.672 196.784C241.672 196.783 241.671 196.78 241.671 196.775H239.996ZM240.504 197.962C240.802 198.186 241.151 198.302 241.524 198.302V196.627C241.518 196.627 241.515 196.627 241.514 196.627C241.514 196.627 241.514 196.627 241.516 196.627C241.517 196.627 241.517 196.628 241.517 196.627C241.516 196.627 241.513 196.626 241.509 196.622L240.504 197.962ZM241.524 198.302H258.953V196.627H241.524V198.302ZM258.953 198.302C259.324 198.302 259.705 198.184 260.005 197.884L258.821 196.7C258.848 196.672 258.883 196.65 258.917 196.637C258.949 196.625 258.965 196.627 258.953 196.627V198.302ZM260.005 197.884C260.293 197.596 260.481 197.218 260.481 196.775H258.805C258.805 196.766 258.806 196.755 258.809 196.742C258.812 196.729 258.816 196.717 258.82 196.708C258.829 196.687 258.835 196.685 258.821 196.7L260.005 197.884ZM260.481 196.775V192.806H258.805V196.775H260.481ZM260.481 192.806C260.481 192.35 260.28 191.949 259.915 191.675L258.91 193.015C258.895 193.004 258.863 192.974 258.836 192.921C258.81 192.869 258.805 192.824 258.805 192.806H260.481ZM260.083 191.843C259.81 191.479 259.408 191.278 258.953 191.278V192.953C258.934 192.953 258.89 192.948 258.837 192.922C258.784 192.896 258.754 192.863 258.743 192.848L260.083 191.843ZM258.953 191.278H241.236V192.953H258.953V191.278ZM241.236 191.278C239.926 191.278 238.756 190.952 237.705 190.308L236.83 191.737C238.156 192.55 239.632 192.953 241.236 192.953V191.278ZM237.705 190.308C236.629 189.649 235.765 188.785 235.105 187.709L233.677 188.584C234.475 189.885 235.528 190.939 236.83 191.737L237.705 190.308ZM235.105 187.709C234.461 186.658 234.136 185.487 234.136 184.177H232.461C232.461 185.782 232.864 187.257 233.677 188.584L235.105 187.709ZM234.136 184.177V179.576H232.461V184.177H234.136ZM234.136 179.576C234.136 178.266 234.461 177.095 235.105 176.044L233.677 175.169C232.864 176.496 232.461 177.971 232.461 179.576H234.136ZM235.105 176.044C235.765 174.968 236.629 174.104 237.705 173.445L236.83 172.017C235.528 172.814 234.475 173.868 233.677 175.169L235.105 176.044ZM237.705 173.445C238.756 172.801 239.926 172.475 241.236 172.475V170.8C239.632 170.8 238.156 171.204 236.83 172.017L237.705 173.445ZM241.236 172.475H259.24V170.8H241.236V172.475ZM259.24 172.475C260.593 172.475 261.782 172.803 262.829 173.445L263.704 172.017C262.374 171.201 260.879 170.8 259.24 170.8V172.475ZM262.829 173.445C263.905 174.104 264.769 174.968 265.429 176.044L266.857 175.169C266.059 173.868 265.006 172.814 263.704 172.017L262.829 173.445ZM265.429 176.044C266.073 177.095 266.398 178.266 266.398 179.576H268.073C268.073 177.971 267.67 176.496 266.857 175.169L265.429 176.044ZM266.398 179.576V180.841H268.073V179.576H266.398ZM267.236 180.004H259.643V181.679H267.236V180.004ZM260.481 180.841V179.863H258.805V180.841H260.481ZM260.481 179.863C260.481 179.408 260.28 179.006 259.915 178.733L258.91 180.073C258.895 180.062 258.863 180.032 258.836 179.979C258.81 179.926 258.805 179.882 258.805 179.863H260.481ZM260.083 178.901C259.81 178.536 259.408 178.336 258.953 178.336V180.011C258.934 180.011 258.89 180.006 258.837 179.98C258.784 179.953 258.754 179.921 258.743 179.906L260.083 178.901ZM258.953 178.336H241.524V180.011H258.953V178.336ZM241.524 178.336C241.08 178.336 240.702 178.523 240.414 178.811L241.598 179.995C241.613 179.981 241.611 179.987 241.591 179.996C241.581 180 241.569 180.004 241.556 180.007C241.543 180.01 241.532 180.011 241.524 180.011V178.336ZM240.414 178.811C240.114 179.111 239.996 179.492 239.996 179.863H241.671C241.671 179.851 241.673 179.867 241.661 179.899C241.648 179.933 241.626 179.968 241.598 179.995L240.414 178.811ZM239.996 179.863V183.832H241.671V179.863H239.996ZM239.996 183.832C239.996 184.205 240.112 184.554 240.336 184.853L241.676 183.847C241.673 183.843 241.671 183.84 241.671 183.839C241.671 183.839 241.671 183.839 241.671 183.841C241.672 183.842 241.672 183.842 241.672 183.842C241.672 183.841 241.671 183.838 241.671 183.832H239.996ZM240.504 185.02C240.802 185.244 241.151 185.36 241.524 185.36V183.685C241.518 183.685 241.515 183.685 241.514 183.684C241.514 183.684 241.514 183.684 241.516 183.685C241.517 183.685 241.517 183.686 241.517 183.685C241.516 183.685 241.513 183.684 241.509 183.68L240.504 185.02ZM241.524 185.36H259.24V183.685H241.524V185.36ZM259.24 185.36C260.593 185.36 261.782 185.688 262.829 186.33L263.704 184.901C262.374 184.086 260.879 183.685 259.24 183.685V185.36ZM262.829 186.33C263.905 186.989 264.769 187.853 265.429 188.929L266.857 188.054C266.059 186.752 265.006 185.699 263.704 184.901L262.829 186.33ZM265.429 188.929C266.073 189.98 266.398 191.15 266.398 192.46H268.073C268.073 190.856 267.67 189.38 266.857 188.054L265.429 188.929ZM266.398 192.46V197.062H268.073V192.46H266.398ZM266.398 197.062C266.398 198.372 266.073 199.542 265.429 200.593L266.857 201.469C267.67 200.142 268.073 198.666 268.073 197.062H266.398ZM265.429 200.593C264.769 201.67 263.905 202.533 262.829 203.193L263.704 204.621C265.006 203.824 266.059 202.77 266.857 201.469L265.429 200.593ZM262.829 203.193C261.782 203.835 260.593 204.162 259.24 204.162V205.838C260.879 205.838 262.374 205.436 263.704 204.621L262.829 203.193ZM259.24 204.162H241.236V205.838H259.24V204.162ZM276.701 203.907L277.138 203.193L276.701 203.907ZM273.825 201.031L274.539 200.593L273.825 201.031ZM272.732 195.797V194.959H271.894V195.797H272.732ZM280.267 195.797H281.104V194.959H280.267V195.797ZM280.439 197.292L279.769 197.795L279.841 197.89L279.937 197.962L280.439 197.292ZM298.846 197.292L299.438 197.884H299.438L298.846 197.292ZM298.846 192.345L298.176 192.848L298.248 192.944L298.344 193.015L298.846 192.345ZM276.701 191.022L277.138 190.308L276.701 191.022ZM273.825 188.146L273.11 188.584L273.825 188.146ZM273.825 175.607L274.539 176.044L273.825 175.607ZM276.701 172.731L277.138 173.445L276.701 172.731ZM302.7 172.731L302.262 173.445L302.7 172.731ZM305.576 175.607L304.862 176.044L305.576 175.607ZM306.669 180.841V181.679H307.507V180.841H306.669ZM299.076 180.841H298.239V181.679H299.076V180.841ZM298.846 179.403L298.176 179.906L298.248 180.001L298.344 180.073L298.846 179.403ZM280.439 179.403L281.032 179.995V179.995L280.439 179.403ZM280.439 184.35L279.769 184.853L279.841 184.948L279.937 185.02L280.439 184.35ZM302.7 185.615L302.262 186.33L302.7 185.615ZM305.576 188.492L304.862 188.929L305.576 188.492ZM305.576 201.031L304.862 200.593L305.576 201.031ZM302.7 203.907L302.262 203.193L302.7 203.907ZM280.67 204.162C279.36 204.162 278.189 203.837 277.138 203.193L276.263 204.621C277.59 205.434 279.065 205.838 280.67 205.838V204.162ZM277.138 203.193C276.062 202.533 275.198 201.67 274.539 200.593L273.11 201.469C273.908 202.77 274.962 203.824 276.263 204.621L277.138 203.193ZM274.539 200.593C273.895 199.542 273.569 198.372 273.569 197.062H271.894C271.894 198.666 272.297 200.142 273.11 201.469L274.539 200.593ZM273.569 197.062V195.797H271.894V197.062H273.569ZM272.732 196.634H280.267V194.959H272.732V196.634ZM279.429 195.797V196.775H281.104V195.797H279.429ZM279.429 196.775C279.429 197.147 279.546 197.496 279.769 197.795L281.11 196.79C281.106 196.785 281.105 196.782 281.104 196.782C281.104 196.781 281.104 196.782 281.105 196.783C281.105 196.784 281.105 196.785 281.105 196.784C281.105 196.783 281.104 196.78 281.104 196.775H279.429ZM279.937 197.962C280.235 198.186 280.584 198.302 280.957 198.302V196.627C280.951 196.627 280.948 196.627 280.948 196.627C280.947 196.627 280.948 196.627 280.949 196.627C280.95 196.627 280.951 196.628 280.95 196.627C280.949 196.627 280.947 196.626 280.942 196.622L279.937 197.962ZM280.957 198.302H298.386V196.627H280.957V198.302ZM298.386 198.302C298.757 198.302 299.138 198.184 299.438 197.884L298.254 196.7C298.282 196.672 298.316 196.65 298.351 196.637C298.383 196.625 298.398 196.627 298.386 196.627V198.302ZM299.438 197.884C299.726 197.596 299.914 197.218 299.914 196.775H298.239C298.239 196.766 298.24 196.755 298.242 196.742C298.245 196.729 298.249 196.717 298.253 196.708C298.262 196.687 298.269 196.685 298.254 196.7L299.438 197.884ZM299.914 196.775V192.806H298.239V196.775H299.914ZM299.914 192.806C299.914 192.35 299.713 191.949 299.349 191.675L298.344 193.015C298.329 193.004 298.296 192.974 298.27 192.921C298.243 192.869 298.239 192.824 298.239 192.806H299.914ZM299.516 191.843C299.243 191.479 298.841 191.278 298.386 191.278V192.953C298.367 192.953 298.323 192.948 298.27 192.922C298.218 192.896 298.187 192.863 298.176 192.848L299.516 191.843ZM298.386 191.278H280.67V192.953H298.386V191.278ZM280.67 191.278C279.36 191.278 278.189 190.952 277.138 190.308L276.263 191.737C277.59 192.55 279.065 192.953 280.67 192.953V191.278ZM277.138 190.308C276.062 189.649 275.198 188.785 274.539 187.709L273.11 188.584C273.908 189.885 274.962 190.939 276.263 191.737L277.138 190.308ZM274.539 187.709C273.895 186.658 273.569 185.487 273.569 184.177H271.894C271.894 185.782 272.297 187.257 273.11 188.584L274.539 187.709ZM273.569 184.177V179.576H271.894V184.177H273.569ZM273.569 179.576C273.569 178.266 273.895 177.095 274.539 176.044L273.11 175.169C272.297 176.496 271.894 177.971 271.894 179.576H273.569ZM274.539 176.044C275.198 174.968 276.062 174.104 277.138 173.445L276.263 172.017C274.962 172.814 273.908 173.868 273.11 175.169L274.539 176.044ZM277.138 173.445C278.189 172.801 279.36 172.475 280.67 172.475V170.8C279.065 170.8 277.59 171.204 276.263 172.017L277.138 173.445ZM280.67 172.475H298.674V170.8H280.67V172.475ZM298.674 172.475C300.026 172.475 301.215 172.803 302.262 173.445L303.138 172.017C301.808 171.201 300.312 170.8 298.674 170.8V172.475ZM302.262 173.445C303.339 174.104 304.202 174.968 304.862 176.044L306.29 175.169C305.493 173.868 304.439 172.814 303.138 172.017L302.262 173.445ZM304.862 176.044C305.506 177.095 305.831 178.266 305.831 179.576H307.507C307.507 177.971 307.103 176.496 306.29 175.169L304.862 176.044ZM305.831 179.576V180.841H307.507V179.576H305.831ZM306.669 180.004H299.076V181.679H306.669V180.004ZM299.914 180.841V179.863H298.239V180.841H299.914ZM299.914 179.863C299.914 179.408 299.713 179.006 299.349 178.733L298.344 180.073C298.329 180.062 298.296 180.032 298.27 179.979C298.243 179.926 298.239 179.882 298.239 179.863H299.914ZM299.516 178.901C299.243 178.536 298.841 178.336 298.386 178.336V180.011C298.367 180.011 298.323 180.006 298.27 179.98C298.218 179.953 298.187 179.921 298.176 179.906L299.516 178.901ZM298.386 178.336H280.957V180.011H298.386V178.336ZM280.957 178.336C280.513 178.336 280.135 178.523 279.847 178.811L281.032 179.995C281.046 179.981 281.045 179.987 281.024 179.996C281.014 180 281.002 180.004 280.99 180.007C280.977 180.01 280.965 180.011 280.957 180.011V178.336ZM279.847 178.811C279.547 179.111 279.429 179.492 279.429 179.863H281.104C281.104 179.851 281.106 179.867 281.094 179.899C281.081 179.933 281.059 179.968 281.032 179.995L279.847 178.811ZM279.429 179.863V183.832H281.104V179.863H279.429ZM279.429 183.832C279.429 184.205 279.546 184.554 279.769 184.853L281.11 183.847C281.106 183.843 281.104 183.84 281.104 183.839C281.104 183.839 281.104 183.839 281.105 183.841C281.105 183.842 281.105 183.842 281.105 183.842C281.105 183.841 281.104 183.838 281.104 183.832H279.429ZM279.937 185.02C280.235 185.244 280.584 185.36 280.957 185.36V183.685C280.951 183.685 280.948 183.685 280.948 183.684C280.947 183.684 280.948 183.684 280.949 183.685C280.95 183.685 280.951 183.686 280.95 183.685C280.949 183.685 280.947 183.684 280.942 183.68L279.937 185.02ZM280.957 185.36H298.674V183.685H280.957V185.36ZM298.674 185.36C300.026 185.36 301.215 185.688 302.262 186.33L303.138 184.901C301.808 184.086 300.312 183.685 298.674 183.685V185.36ZM302.262 186.33C303.339 186.989 304.202 187.853 304.862 188.929L306.29 188.054C305.493 186.752 304.439 185.699 303.138 184.901L302.262 186.33ZM304.862 188.929C305.506 189.98 305.831 191.15 305.831 192.46H307.507C307.507 190.856 307.103 189.38 306.29 188.054L304.862 188.929ZM305.831 192.46V197.062H307.507V192.46H305.831ZM305.831 197.062C305.831 198.372 305.506 199.542 304.862 200.593L306.29 201.469C307.103 200.142 307.507 198.666 307.507 197.062H305.831ZM304.862 200.593C304.202 201.67 303.339 202.533 302.262 203.193L303.138 204.621C304.439 203.824 305.493 202.77 306.29 201.469L304.862 200.593ZM302.262 203.193C301.215 203.835 300.026 204.162 298.674 204.162V205.838C300.312 205.838 301.808 205.436 303.138 204.621L302.262 203.193ZM298.674 204.162H280.67V205.838H298.674V204.162Z" fill="white"/>
</g>
<defs>
<filter id="filter0_d_4139_25376" x="108.994" y="119.709" width="202.568" height="100.197" filterUnits="userSpaceOnUse" color-interpolation-filters="sRGB">
<feFlood flood-opacity="0" result="BackgroundImageFix"/>
<feColorMatrix in="SourceAlpha" type="matrix" values="0 0 0 0 0 0 0 0 0 0 0 0 0 0 0 0 0 0 127 0" result="hardAlpha"/>
<feOffset dy="1.67509"/>
<feComposite in2="hardAlpha" operator="out"/>
<feColorMatrix type="matrix" values="0 0 0 0 0 0 0 0 0 0.17162 0 0 0 0 0.491667 0 0 0 1 0"/>
<feBlend mode="normal" in2="BackgroundImageFix" result="effect1_dropShadow_4139_25376"/>
<feBlend mode="normal" in="SourceGraphic" in2="effect1_dropShadow_4139_25376" result="shape"/>
</filter>
<linearGradient id="paint0_linear_4139_25376" x1="126.216" y1="35.2527" x2="466.092" y2="201.629" gradientUnits="userSpaceOnUse">
<stop stop-color="#0BCDED"/>
<stop offset="1" stop-color="#5576E7"/>
</linearGradient>
<linearGradient id="paint1_linear_4139_25376" x1="98.1006" y1="62.155" x2="465.106" y2="151.877" gradientUnits="userSpaceOnUse">
<stop stop-color="#0BCDED"/>
<stop offset="1" stop-color="#5576E7"/>
</linearGradient>
<linearGradient id="paint2_linear_4139_25376" x1="120.961" y1="40.5883" x2="467.569" y2="192.092" gradientUnits="userSpaceOnUse">
<stop stop-color="#0BCDED"/>
<stop offset="1" stop-color="#5576E7"/>
</linearGradient>
<linearGradient id="paint3_linear_4139_25376" x1="115.516" y1="45.9385" x2="468.21" y2="182.314" gradientUnits="userSpaceOnUse">
<stop stop-color="#0BCDED"/>
<stop offset="1" stop-color="#5576E7"/>
</linearGradient>
<linearGradient id="paint4_linear_4139_25376" x1="109.892" y1="51.3094" x2="468.018" y2="172.326" gradientUnits="userSpaceOnUse">
<stop stop-color="#0BCDED"/>
<stop offset="1" stop-color="#5576E7"/>
</linearGradient>
<linearGradient id="paint5_linear_4139_25376" x1="104.086" y1="56.7129" x2="466.985" y2="162.17" gradientUnits="userSpaceOnUse">
<stop stop-color="#0BCDED"/>
<stop offset="1" stop-color="#5576E7"/>
</linearGradient>
<linearGradient id="paint6_linear_4139_25376" x1="129.202" y1="94.3151" x2="272.319" y2="265.098" gradientUnits="userSpaceOnUse">
<stop stop-color="#13C0E3"/>
<stop offset="1" stop-color="#6C7BCF"/>
</linearGradient>
<linearGradient id="paint7_linear_4139_25376" x1="173.574" y1="128" x2="260.797" y2="263.291" gradientUnits="userSpaceOnUse">
<stop stop-color="#0BCDED"/>
<stop offset="1" stop-color="#5576E7"/>
</linearGradient>
</defs>
</svg>
