<svg width="21" height="21" viewBox="0 0 21 21" fill="#0BCDED" stroke="#0BCDED" xmlns="http://www.w3.org/2000/svg">
<path fill-rule="evenodd" clip-rule="evenodd" d="M11.5556 1.61111C11.5556 0.997461 11.083 0.5 10.5 0.5C9.91703 0.5 9.44444 0.997461 9.44444 1.61111V9.38889H2.05556C1.47259 9.38889 1 9.88635 1 10.5C1 11.1136 1.47259 11.6111 2.05556 11.6111H9.44444V19.3889C9.44444 20.0025 9.91703 20.5 10.5 20.5C11.083 20.5 11.5556 20.0025 11.5556 19.3889V11.6111H18.9444C19.5274 11.6111 20 11.1136 20 10.5C20 9.88635 19.5274 9.38889 18.9444 9.38889H11.5556V1.61111Z" stroke-width="0.3" stroke-linecap="round" stroke-linejoin="round"/>
</svg>
