<svg width="29" height="38" viewBox="0 0 29 38" fill="none" xmlns="http://www.w3.org/2000/svg">
<path d="M25.85 16.45H23.5V9.4C23.5 4.23 19.27 0 14.1 0C8.93 0 4.7 4.23 4.7 9.4V16.45H2.35C1.175 16.45 0 17.625 0 18.8V35.25C0 36.425 1.175 37.6 2.35 37.6H25.85C27.025 37.6 28.2 36.425 28.2 35.25V18.8C28.2 17.625 27.025 16.45 25.85 16.45ZM16.45 32.9H11.75L12.69 27.73C11.515 27.26 10.575 25.85 10.575 24.675C10.575 22.795 12.22 21.15 14.1 21.15C15.98 21.15 17.625 22.795 17.625 24.675C17.625 26.085 16.92 27.26 15.51 27.73L16.45 32.9ZM18.8 16.45H9.4V9.4C9.4 6.815 11.515 4.7 14.1 4.7C16.685 4.7 18.8 6.815 18.8 9.4V16.45Z" fill="url(#paint0_linear_4778_8566)"/>
<path d="M25.85 16.45H23.5V9.4C23.5 4.23 19.27 0 14.1 0C8.93 0 4.7 4.23 4.7 9.4V16.45H2.35C1.175 16.45 0 17.625 0 18.8V35.25C0 36.425 1.175 37.6 2.35 37.6H25.85C27.025 37.6 28.2 36.425 28.2 35.25V18.8C28.2 17.625 27.025 16.45 25.85 16.45ZM16.45 32.9H11.75L12.69 27.73C11.515 27.26 10.575 25.85 10.575 24.675C10.575 22.795 12.22 21.15 14.1 21.15C15.98 21.15 17.625 22.795 17.625 24.675C17.625 26.085 16.92 27.26 15.51 27.73L16.45 32.9ZM18.8 16.45H9.4V9.4C9.4 6.815 11.515 4.7 14.1 4.7C16.685 4.7 18.8 6.815 18.8 9.4V16.45Z" fill="white" fill-opacity="0.49"/>
<defs>
<linearGradient id="paint0_linear_4778_8566" x1="8.21348" y1="2.19405e-06" x2="40.5202" y2="11.0842" gradientUnits="userSpaceOnUse">
<stop stop-color="#0BCDED"/>
<stop offset="1" stop-color="#5576E7"/>
</linearGradient>
</defs>
</svg>
