<svg width="20" height="20" viewBox="0 0 20 20" fill="#0BCDED" stroke="#0BCDED" xmlns="http://www.w3.org/2000/svg">
<path d="M15.166 4.55065H15.216V4.50065V2.66732C15.216 2.16411 14.9702 1.68419 14.5376 1.33217C14.1053 0.980383 13.5207 0.783984 12.9128 0.783984H2.77366C2.16578 0.783984 1.58123 0.980383 1.14888 1.33217C0.716255 1.68419 0.470508 2.16411 0.470508 2.66732V17.334C0.470508 17.8372 0.716255 18.3171 1.14888 18.6691C1.58123 19.0209 2.16578 19.2173 2.77366 19.2173H12.9128C13.5207 19.2173 14.1053 19.0209 14.5376 18.6691C14.9702 18.3171 15.216 17.8372 15.216 17.334V15.5007V15.4507H15.166H12.9128H12.8628V15.5007V17.284H2.82366V2.71732H12.8628V4.50065V4.55065H12.9128H15.166Z" stroke-width="0.1"/>
<path d="M14.3713 13.2566L14.3408 13.2902L14.3713 13.3238L15.5463 14.6163L15.5833 14.657L15.6203 14.6163L19.787 10.033L19.8176 9.99935L19.787 9.96571L15.6203 5.38238L15.5833 5.34169L15.5463 5.38238L14.3713 6.67488L14.3408 6.70845L14.3713 6.74208L16.4456 9.03268H8.5H8.45V9.08268V10.916V10.966H8.5H16.4456L14.3713 13.2566Z" stroke-width="0.1"/>
</svg>
