<svg width="19" height="25" viewBox="0 0 19 25" fill="none" stroke="#0BCDED" xmlns="http://www.w3.org/2000/svg">
<path d="M16.9375 7.04163H2.0625C1.4757 7.04163 1 7.53784 1 8.14996V22.5583C1 23.1704 1.4757 23.6666 2.0625 23.6666H16.9375C17.5243 23.6666 18 23.1704 18 22.5583V8.14996C18 7.53784 17.5243 7.04163 16.9375 7.04163Z" stroke-width="2" stroke-linecap="round" stroke-linejoin="round"/>
<path d="M5.78125 9.25833V5.37917C5.78125 4.86975 5.87744 4.36532 6.06432 3.89467C6.25121 3.42403 6.52513 2.9964 6.87045 2.63618C7.21576 2.27597 7.62572 1.99023 8.0769 1.79528C8.52808 1.60034 9.01165 1.5 9.5 1.5C9.98835 1.5 10.4719 1.60034 10.9231 1.79528C11.3743 1.99023 11.7842 2.27597 12.1296 2.63618C12.4749 2.9964 12.7488 3.42403 12.9357 3.89467C13.1226 4.36532 13.2188 4.86975 13.2188 5.37917V9.25833" stroke-width="2" stroke-linecap="round" stroke-linejoin="round"/>
</svg>
