<svg width="24" height="24" viewBox="0 0 24 24" fill="none" xmlns="http://www.w3.org/2000/svg">
<path d="M1 11.5C1 17.2881 5.71193 22 11.5 22C17.2881 22 22 17.2881 22 11.5C22 5.71193 17.2881 1 11.5 1C5.71193 1 1 5.71193 1 11.5ZM3 11.5C3 6.81788 6.80826 3 11.5 3C16.1917 3 20 6.81788 20 11.5C20 16.1821 16.1917 20 11.5 20C6.80826 20 3 16.1821 3 11.5Z" fill="#0BCDED" stroke="#0BCDED" stroke-width="0.5"/>
<path d="M21.2937 22.7062C21.493 22.9056 21.7477 22.9995 22.0004 22.9995C22.2532 22.9995 22.5079 22.9056 22.7072 22.7062C23.0948 22.3186 23.0948 21.6803 22.7072 21.2927L20.7072 19.2927C20.3196 18.905 19.6813 18.905 19.2937 19.2927C18.906 19.6803 18.906 20.3186 19.2937 20.7062L21.2937 22.7062Z" fill="#0BCDED" stroke="#0BCDED" stroke-width="0.5"/>
</svg>
