<svg width="21" height="19" viewBox="0 0 21 19" fill="#0BCDED" xmlns="http://www.w3.org/2000/svg">
<path d="M3.682 18.65H7.318C8.23612 18.65 8.94936 18.4519 9.4336 18.0219C9.92138 17.5888 10.15 16.9447 10.15 16.114V2.88605C10.15 2.05577 9.92387 1.4115 9.43711 0.978194C8.95387 0.54801 8.24043 0.35 7.318 0.35H3.682C2.76388 0.35 2.05064 0.54809 1.5664 0.978069C1.07862 1.41119 0.85 2.05534 0.85 2.88605V16.114C0.85 16.9442 1.07613 17.5885 1.56289 18.0218C2.04613 18.452 2.75957 18.65 3.682 18.65ZM2.5 2.88605C2.5 2.46046 2.55176 2.24183 2.68954 2.11367C2.83245 1.98073 3.10878 1.90581 3.682 1.90581H7.318C7.89122 1.90581 8.16755 1.98073 8.31046 2.11367C8.44824 2.24183 8.5 2.46046 8.5 2.88605V16.114C8.5 16.5395 8.44824 16.7582 8.31046 16.8863C8.16755 17.0193 7.89122 17.0942 7.318 17.0942H3.682C3.10878 17.0942 2.83245 17.0193 2.68954 16.8863C2.55176 16.7582 2.5 16.5395 2.5 16.114V2.88605Z"/>
<path d="M13.7638 11.1083H17.2988C18.1926 11.1083 18.8878 10.9108 19.3597 10.4818C19.8344 10.0502 20.0563 9.40925 20.0563 8.58329V2.91663C20.0563 2.09109 19.8368 1.45 19.3631 1.01826C18.8922 0.589067 18.1968 0.391626 17.2988 0.391626H13.7638C12.8699 0.391626 12.1747 0.589149 11.7028 1.01813C11.2281 1.44969 11.0062 2.09067 11.0062 2.91663V8.58329C11.0062 9.40883 11.2257 10.0499 11.6994 10.4817C12.1704 10.9109 12.8657 11.1083 13.7638 11.1083ZM12.6188 2.91663C12.6188 2.49253 12.6693 2.27446 12.803 2.14712C12.9405 2.01617 13.2068 1.94163 13.7638 1.94163H17.2988C17.8557 1.94163 18.122 2.01617 18.2595 2.14712C18.3932 2.27446 18.4438 2.49253 18.4438 2.91663V8.58329C18.4438 9.00739 18.3932 9.22546 18.2595 9.3528C18.122 9.48375 17.8557 9.55829 17.2988 9.55829H13.7638C13.2068 9.55829 12.9405 9.48375 12.803 9.3528C12.6693 9.22546 12.6188 9.00739 12.6188 8.58329V2.91663Z"/>
<path d="M13.7638 18.6084H17.2988C18.1926 18.6084 18.8878 18.4109 19.3597 17.9819C19.8344 17.5503 20.0563 16.9093 20.0563 16.0834V14.5834C20.0563 13.7578 19.8368 13.1167 19.3631 12.685C18.8922 12.2558 18.1968 12.0584 17.2988 12.0584H13.7638C12.8699 12.0584 12.1747 12.2559 11.7028 12.6849C11.2281 13.1164 11.0062 13.7574 11.0062 14.5834V16.0834C11.0062 16.9089 11.2257 17.55 11.6994 17.9817C12.1704 18.4109 12.8657 18.6084 13.7638 18.6084ZM12.6188 14.5834C12.6188 14.1593 12.6693 13.9412 12.803 13.8139C12.9405 13.6829 13.2068 13.6084 13.7638 13.6084H17.2988C17.8557 13.6084 18.122 13.6829 18.2595 13.8139C18.3932 13.9412 18.4438 14.1593 18.4438 14.5834V16.0834C18.4438 16.5075 18.3932 16.7255 18.2595 16.8529C18.122 16.9838 17.8557 17.0584 17.2988 17.0584H13.7638C13.2068 17.0584 12.9405 16.9838 12.803 16.8529C12.6693 16.7255 12.6188 16.5075 12.6188 16.0834V14.5834Z"/>
</svg>
