<svg width="11" height="14" viewBox="0 0 11 14" fill="none" xmlns="http://www.w3.org/2000/svg">
<path d="M5.7405 1.25585L5.74108 1.2564L10.3081 5.58631C10.3081 5.58634 10.3081 5.58637 10.3082 5.5864C10.3469 5.62315 10.3517 5.64757 10.3528 5.65448C10.3542 5.6639 10.3539 5.68068 10.3411 5.70478C10.3159 5.75216 10.233 5.83356 10.0612 5.83356H0.926259C0.753861 5.83356 0.67083 5.75195 0.645607 5.70463C0.632771 5.68055 0.632465 5.66381 0.633907 5.65443C0.634965 5.64756 0.639817 5.62312 0.678613 5.58631L5.24712 1.25646L5.24777 1.25585C5.27054 1.23419 5.30361 1.21217 5.34741 1.19555C5.3912 1.17895 5.44144 1.16943 5.49413 1.16943C5.54683 1.16943 5.59707 1.17895 5.64085 1.19555C5.68465 1.21217 5.71773 1.23419 5.7405 1.25585ZM5.24698 12.7439L5.24637 12.7434L0.679404 8.41414C0.640611 8.37734 0.635743 8.35288 0.634679 8.34597C0.633228 8.33655 0.633544 8.31977 0.64638 8.29567C0.671613 8.24829 0.754493 8.16689 0.926259 8.16689H10.0604C10.2329 8.16689 10.3158 8.24854 10.3409 8.29566C10.3537 8.31961 10.3539 8.33613 10.3525 8.34525C10.3515 8.35186 10.3467 8.37617 10.3079 8.4129L10.3074 8.41338L5.74029 12.7434L5.73971 12.7439C5.71694 12.7656 5.68386 12.7876 5.64006 12.8042C5.59628 12.8208 5.54604 12.8303 5.49334 12.8303C5.44064 12.8303 5.3904 12.8208 5.34662 12.8042C5.30282 12.7876 5.26975 12.7656 5.24698 12.7439Z" fill="white" stroke="#292E5B"/>
</svg>
