<svg width="19" height="19" viewBox="0 0 19 19" fill="#0BCDED" xmlns="http://www.w3.org/2000/svg">
<path d="M17.1 4.49976V2.49976C17.1 1.39676 16.2479 0.499756 15.2 0.499756H2.85C1.2787 0.499756 0 1.84576 0 3.49976V15.4998C0 17.7008 1.7043 18.4998 2.85 18.4998H17.1C18.1479 18.4998 19 17.6028 19 16.4998V6.49976C19 5.39676 18.1479 4.49976 17.1 4.49976ZM2.85 2.49976H15.2V4.49976H2.85C2.60539 4.48824 2.37443 4.37785 2.20521 4.19157C2.03599 4.0053 1.94155 3.75749 1.94155 3.49976C1.94155 3.24202 2.03599 2.99421 2.20521 2.80794C2.37443 2.62166 2.60539 2.51127 2.85 2.49976ZM17.1 16.4998H2.8614C2.4225 16.4878 1.9 16.3048 1.9 15.4998V6.31476C2.1983 6.42776 2.51465 6.49976 2.85 6.49976H17.1V16.4998Z"/>
</svg>
