<svg width="19" height="15" viewBox="0 0 19 15" fill="#0BCDED" xmlns="http://www.w3.org/2000/svg">
<path d="M16.8162 0.388146C16.9341 0.265254 17.0748 0.167626 17.23 0.100978C17.3853 0.0343292 17.552 0 17.7204 0C17.8889 0 18.0556 0.0343292 18.2108 0.100978C18.3661 0.167626 18.5068 0.265254 18.6247 0.388146C19.1187 0.898182 19.1256 1.72236 18.642 2.24122L8.42839 14.5774C8.31242 14.7075 8.1717 14.812 8.01483 14.8847C7.85796 14.9573 7.68823 14.9965 7.51603 14.9998C7.34384 15.0031 7.17279 14.9704 7.01336 14.9039C6.85393 14.8373 6.70946 14.7382 6.5888 14.6127L0.373948 8.17811C0.134262 7.92836 0 7.59253 0 7.24275C0 6.89296 0.134262 6.55713 0.373948 6.30738C0.49183 6.18449 0.632524 6.08686 0.787791 6.02022C0.943059 5.95357 1.10978 5.91924 1.27819 5.91924C1.44661 5.91924 1.61333 5.95357 1.7686 6.02022C1.92386 6.08686 2.06456 6.18449 2.18244 6.30738L7.45418 11.766L16.7816 0.426972C16.7924 0.413333 16.8039 0.400368 16.8162 0.388146Z"/>
</svg>
